<svg xmlns="http://www.w3.org/2000/svg" version="1.1" xmlns:xlink="http://www.w3.org/1999/xlink" xmlns:svgjs="http://svgjs.dev/svgjs" width="2980" height="1280" preserveAspectRatio="none" viewBox="0 0 2980 1280"><g mask="url(&quot;#SvgjsMask1212&quot;)" fill="none"><path d="M548 52L547 -392" stroke-width="6" stroke="url(&quot;#SvgjsLinearGradient1213&quot;)" stroke-linecap="round" class="Up"></path><path d="M810 146L809 1056" stroke-width="10" stroke="url(&quot;#SvgjsLinearGradient1213&quot;)" stroke-linecap="round" class="Up"></path><path d="M718 1135L717 247" stroke-width="10" stroke="url(&quot;#SvgjsLinearGradient1213&quot;)" stroke-linecap="round" class="Up"></path><path d="M1118 1114L1117 1656" stroke-width="6" stroke="url(&quot;#SvgjsLinearGradient1213&quot;)" stroke-linecap="round" class="Up"></path><path d="M2856 811L2855 336" stroke-width="6" stroke="url(&quot;#SvgjsLinearGradient1213&quot;)" stroke-linecap="round" class="Up"></path><path d="M1243 883L1242 1388" stroke-width="8" stroke="url(&quot;#SvgjsLinearGradient1213&quot;)" stroke-linecap="round" class="Up"></path><path d="M1614 281L1613 -313" stroke-width="10" stroke="url(&quot;#SvgjsLinearGradient1213&quot;)" stroke-linecap="round" class="Up"></path><path d="M283 12L282 -644" stroke-width="6" stroke="url(&quot;#SvgjsLinearGradient1214&quot;)" stroke-linecap="round" class="Down"></path><path d="M2631 643L2630 319" stroke-width="8" stroke="url(&quot;#SvgjsLinearGradient1214&quot;)" stroke-linecap="round" class="Down"></path><path d="M1223 878L1222 1535" stroke-width="8" stroke="url(&quot;#SvgjsLinearGradient1214&quot;)" stroke-linecap="round" class="Down"></path><path d="M755 702L754 1114" stroke-width="8" stroke="url(&quot;#SvgjsLinearGradient1213&quot;)" stroke-linecap="round" class="Up"></path><path d="M2943 56L2942 962" stroke-width="6" stroke="url(&quot;#SvgjsLinearGradient1214&quot;)" stroke-linecap="round" class="Down"></path><path d="M1558 1125L1557 2032" stroke-width="10" stroke="url(&quot;#SvgjsLinearGradient1213&quot;)" stroke-linecap="round" class="Up"></path><path d="M531 705L530 -216" stroke-width="10" stroke="url(&quot;#SvgjsLinearGradient1214&quot;)" stroke-linecap="round" class="Down"></path><path d="M18 993L17 421" stroke-width="10" stroke="url(&quot;#SvgjsLinearGradient1213&quot;)" stroke-linecap="round" class="Up"></path><path d="M821 1199L820 637" stroke-width="6" stroke="url(&quot;#SvgjsLinearGradient1213&quot;)" stroke-linecap="round" class="Up"></path><path d="M1152 870L1151 203" stroke-width="6" stroke="url(&quot;#SvgjsLinearGradient1213&quot;)" stroke-linecap="round" class="Up"></path><path d="M1893 131L1892 725" stroke-width="10" stroke="url(&quot;#SvgjsLinearGradient1214&quot;)" stroke-linecap="round" class="Down"></path><path d="M2412 1223L2411 1772" stroke-width="6" stroke="url(&quot;#SvgjsLinearGradient1213&quot;)" stroke-linecap="round" class="Up"></path><path d="M2964 1067L2963 1628" stroke-width="6" stroke="url(&quot;#SvgjsLinearGradient1214&quot;)" stroke-linecap="round" class="Down"></path><path d="M2276 115L2275 1045" stroke-width="8" stroke="url(&quot;#SvgjsLinearGradient1213&quot;)" stroke-linecap="round" class="Up"></path><path d="M1178 615L1177 1318" stroke-width="6" stroke="url(&quot;#SvgjsLinearGradient1214&quot;)" stroke-linecap="round" class="Down"></path><path d="M1577 546L1576 -237" stroke-width="8" stroke="url(&quot;#SvgjsLinearGradient1214&quot;)" stroke-linecap="round" class="Down"></path><path d="M2122 538L2121 1361" stroke-width="6" stroke="url(&quot;#SvgjsLinearGradient1213&quot;)" stroke-linecap="round" class="Up"></path><path d="M1470 943L1469 1825" stroke-width="10" stroke="url(&quot;#SvgjsLinearGradient1214&quot;)" stroke-linecap="round" class="Down"></path><path d="M527 1087L526 134" stroke-width="8" stroke="url(&quot;#SvgjsLinearGradient1214&quot;)" stroke-linecap="round" class="Down"></path><path d="M759 216L758 -451" stroke-width="10" stroke="url(&quot;#SvgjsLinearGradient1214&quot;)" stroke-linecap="round" class="Down"></path><path d="M1509 730L1508 -124" stroke-width="6" stroke="url(&quot;#SvgjsLinearGradient1214&quot;)" stroke-linecap="round" class="Down"></path><path d="M2430 97L2429 -750" stroke-width="6" stroke="url(&quot;#SvgjsLinearGradient1213&quot;)" stroke-linecap="round" class="Up"></path><path d="M192 454L191 -461" stroke-width="10" stroke="url(&quot;#SvgjsLinearGradient1214&quot;)" stroke-linecap="round" class="Down"></path><path d="M2876 753L2875 395" stroke-width="10" stroke="url(&quot;#SvgjsLinearGradient1213&quot;)" stroke-linecap="round" class="Up"></path><path d="M2226 1146L2225 442" stroke-width="10" stroke="url(&quot;#SvgjsLinearGradient1213&quot;)" stroke-linecap="round" class="Up"></path><path d="M2142 873L2141 1517" stroke-width="10" stroke="url(&quot;#SvgjsLinearGradient1214&quot;)" stroke-linecap="round" class="Down"></path><path d="M2152 27L2151 779" stroke-width="10" stroke="url(&quot;#SvgjsLinearGradient1213&quot;)" stroke-linecap="round" class="Up"></path><path d="M773 998L772 1577" stroke-width="10" stroke="url(&quot;#SvgjsLinearGradient1213&quot;)" stroke-linecap="round" class="Up"></path><path d="M1910 1117L1909 1884" stroke-width="6" stroke="url(&quot;#SvgjsLinearGradient1213&quot;)" stroke-linecap="round" class="Up"></path><path d="M2183 193L2182 563" stroke-width="6" stroke="url(&quot;#SvgjsLinearGradient1214&quot;)" stroke-linecap="round" class="Down"></path><path d="M2686 1L2685 -356" stroke-width="10" stroke="url(&quot;#SvgjsLinearGradient1214&quot;)" stroke-linecap="round" class="Down"></path><path d="M1784 416L1783 881" stroke-width="8" stroke="url(&quot;#SvgjsLinearGradient1213&quot;)" stroke-linecap="round" class="Up"></path><path d="M1912 956L1911 569" stroke-width="8" stroke="url(&quot;#SvgjsLinearGradient1213&quot;)" stroke-linecap="round" class="Up"></path><path d="M2591 1137L2590 1858" stroke-width="8" stroke="url(&quot;#SvgjsLinearGradient1213&quot;)" stroke-linecap="round" class="Up"></path><path d="M1625 970L1624 444" stroke-width="10" stroke="url(&quot;#SvgjsLinearGradient1214&quot;)" stroke-linecap="round" class="Down"></path><path d="M108 386L107 -95" stroke-width="10" stroke="url(&quot;#SvgjsLinearGradient1213&quot;)" stroke-linecap="round" class="Up"></path><path d="M1716 322L1715 -531" stroke-width="6" stroke="url(&quot;#SvgjsLinearGradient1213&quot;)" stroke-linecap="round" class="Up"></path><path d="M2229 637L2228 -202" stroke-width="10" stroke="url(&quot;#SvgjsLinearGradient1214&quot;)" stroke-linecap="round" class="Down"></path><path d="M1218 447L1217 -483" stroke-width="6" stroke="url(&quot;#SvgjsLinearGradient1214&quot;)" stroke-linecap="round" class="Down"></path><path d="M725 941L724 1473" stroke-width="6" stroke="url(&quot;#SvgjsLinearGradient1214&quot;)" stroke-linecap="round" class="Down"></path><path d="M2280 829L2279 266" stroke-width="8" stroke="url(&quot;#SvgjsLinearGradient1214&quot;)" stroke-linecap="round" class="Down"></path><path d="M2128 469L2127 -317" stroke-width="8" stroke="url(&quot;#SvgjsLinearGradient1213&quot;)" stroke-linecap="round" class="Up"></path><path d="M38 222L37 901" stroke-width="10" stroke="url(&quot;#SvgjsLinearGradient1214&quot;)" stroke-linecap="round" class="Down"></path><path d="M319 836L318 1281" stroke-width="6" stroke="url(&quot;#SvgjsLinearGradient1213&quot;)" stroke-linecap="round" class="Up"></path><path d="M543 611L542 1078" stroke-width="10" stroke="url(&quot;#SvgjsLinearGradient1214&quot;)" stroke-linecap="round" class="Down"></path><path d="M699 347L698 1019" stroke-width="8" stroke="url(&quot;#SvgjsLinearGradient1213&quot;)" stroke-linecap="round" class="Up"></path><path d="M818 891L817 539" stroke-width="6" stroke="url(&quot;#SvgjsLinearGradient1214&quot;)" stroke-linecap="round" class="Down"></path><path d="M2785 0L2784 -561" stroke-width="10" stroke="url(&quot;#SvgjsLinearGradient1214&quot;)" stroke-linecap="round" class="Down"></path><path d="M959 422L958 -350" stroke-width="10" stroke="url(&quot;#SvgjsLinearGradient1213&quot;)" stroke-linecap="round" class="Up"></path><path d="M452 1115L451 1975" stroke-width="8" stroke="url(&quot;#SvgjsLinearGradient1213&quot;)" stroke-linecap="round" class="Up"></path><path d="M2908 882L2907 112" stroke-width="8" stroke="url(&quot;#SvgjsLinearGradient1213&quot;)" stroke-linecap="round" class="Up"></path><path d="M2612 1166L2611 1880" stroke-width="10" stroke="url(&quot;#SvgjsLinearGradient1214&quot;)" stroke-linecap="round" class="Down"></path><path d="M2939 489L2938 1223" stroke-width="8" stroke="url(&quot;#SvgjsLinearGradient1214&quot;)" stroke-linecap="round" class="Down"></path><path d="M481 552L480 1249" stroke-width="10" stroke="url(&quot;#SvgjsLinearGradient1213&quot;)" stroke-linecap="round" class="Up"></path><path d="M792 100L791 1051" stroke-width="6" stroke="url(&quot;#SvgjsLinearGradient1213&quot;)" stroke-linecap="round" class="Up"></path><path d="M630 914L629 1375" stroke-width="10" stroke="url(&quot;#SvgjsLinearGradient1213&quot;)" stroke-linecap="round" class="Up"></path><path d="M594 1270L593 950" stroke-width="10" stroke="url(&quot;#SvgjsLinearGradient1213&quot;)" stroke-linecap="round" class="Up"></path><path d="M1730 1238L1729 2094" stroke-width="8" stroke="url(&quot;#SvgjsLinearGradient1214&quot;)" stroke-linecap="round" class="Down"></path><path d="M854 1012L853 661" stroke-width="6" stroke="url(&quot;#SvgjsLinearGradient1214&quot;)" stroke-linecap="round" class="Down"></path><path d="M2538 189L2537 -518" stroke-width="10" stroke="url(&quot;#SvgjsLinearGradient1213&quot;)" stroke-linecap="round" class="Up"></path><path d="M262 937L261 1780" stroke-width="8" stroke="url(&quot;#SvgjsLinearGradient1214&quot;)" stroke-linecap="round" class="Down"></path><path d="M846 504L845 19" stroke-width="8" stroke="url(&quot;#SvgjsLinearGradient1214&quot;)" stroke-linecap="round" class="Down"></path><path d="M1009 1133L1008 401" stroke-width="8" stroke="url(&quot;#SvgjsLinearGradient1214&quot;)" stroke-linecap="round" class="Down"></path><path d="M2378 915L2377 1755" stroke-width="6" stroke="url(&quot;#SvgjsLinearGradient1213&quot;)" stroke-linecap="round" class="Up"></path><path d="M389 804L388 1751" stroke-width="8" stroke="url(&quot;#SvgjsLinearGradient1213&quot;)" stroke-linecap="round" class="Up"></path><path d="M1048 247L1047 -137" stroke-width="8" stroke="url(&quot;#SvgjsLinearGradient1213&quot;)" stroke-linecap="round" class="Up"></path><path d="M474 889L473 1408" stroke-width="8" stroke="url(&quot;#SvgjsLinearGradient1214&quot;)" stroke-linecap="round" class="Down"></path><path d="M330 606L329 -220" stroke-width="10" stroke="url(&quot;#SvgjsLinearGradient1213&quot;)" stroke-linecap="round" class="Up"></path></g><defs><mask id="SvgjsMask1212"><rect width="2980" height="1280" fill="#ffffff"></rect></mask><linearGradient x1="0%" y1="100%" x2="0%" y2="0%" id="SvgjsLinearGradient1213"><stop stop-color="rgba(55, 155, 255, 0)" offset="0"></stop><stop stop-color="rgba(55, 155, 255, 1)" offset="1"></stop></linearGradient><linearGradient x1="0%" y1="0%" x2="0%" y2="100%" id="SvgjsLinearGradient1214"><stop stop-color="rgba(55, 155, 255, 0)" offset="0"></stop><stop stop-color="rgba(55, 155, 255, 1)" offset="1"></stop></linearGradient></defs></svg>